<svg width="67" height="67" viewBox="0 0 67 67" fill="none" xmlns="http://www.w3.org/2000/svg">
<circle cx="33.5" cy="33.5" r="33.5" fill="#93F8FF" fill-opacity="0.5"/>
<circle cx="33.5" cy="33.5" r="28.8564" fill="#93F8FF"/>
<path d="M44.6678 22.7766C45.1817 22.2873 45.8657 22.0168 46.5753 22.0222C47.2849 22.0275 47.9647 22.3084 48.4712 22.8054C48.9777 23.3024 49.2713 23.9768 49.29 24.6862C49.3088 25.3955 49.0512 26.0845 48.5717 26.6076L34.0141 44.8137C33.7638 45.0833 33.4617 45.2996 33.1258 45.4498C32.79 45.6 32.4273 45.6809 32.0594 45.6877C31.6916 45.6946 31.3262 45.6271 30.985 45.4895C30.6438 45.3518 30.3339 45.1468 30.0737 44.8866L20.4198 35.2326C20.1509 34.9821 19.9353 34.68 19.7857 34.3444C19.6362 34.0087 19.5557 33.6464 19.5493 33.279C19.5428 32.9115 19.6104 32.5466 19.748 32.2058C19.8856 31.8651 20.0905 31.5556 20.3503 31.2958C20.6101 31.0359 20.9197 30.8311 21.2604 30.6934C21.6011 30.5558 21.9661 30.4882 22.3335 30.4947C22.7009 30.5012 23.0633 30.5816 23.3989 30.7312C23.7346 30.8807 24.0367 31.0964 24.2872 31.3652L31.9272 39.0016L44.5985 22.8569C44.6213 22.8288 44.6456 22.802 44.6714 22.7766H44.6678Z" fill="white"/>
</svg>
