<svg width="67" height="67" viewBox="0 0 67 67" fill="none" xmlns="http://www.w3.org/2000/svg">
<circle cx="33.5" cy="33.5" r="33.5" fill="#93F8FF" fill-opacity="0.5"/>
<circle cx="33.5" cy="33.5" r="28.8564" fill="#93F8FF"/>
<path d="M32.8335 44.5C32.8335 44.0359 32.6491 43.5908 32.3209 43.2626C31.9927 42.9344 31.5476 42.75 31.0835 42.75C30.6194 42.75 30.1742 42.9344 29.8461 43.2626C29.5179 43.5908 29.3335 44.0359 29.3335 44.5H23.5002C23.1907 44.5 22.894 44.3771 22.6752 44.1583C22.4564 43.9395 22.3335 43.6428 22.3335 43.3333V24.6667C22.3335 24.3572 22.4564 24.0605 22.6752 23.8417C22.894 23.6229 23.1907 23.5 23.5002 23.5H29.3335C29.3335 23.9641 29.5179 24.4092 29.8461 24.7374C30.1742 25.0656 30.6194 25.25 31.0835 25.25C31.5476 25.25 31.9927 25.0656 32.3209 24.7374C32.6491 24.4092 32.8335 23.9641 32.8335 23.5H44.5002C44.8096 23.5 45.1063 23.6229 45.3251 23.8417C45.5439 24.0605 45.6668 24.3572 45.6668 24.6667V31.0833C44.8933 31.0833 44.1514 31.3906 43.6044 31.9376C43.0575 32.4846 42.7502 33.2265 42.7502 34C42.7502 34.7735 43.0575 35.5154 43.6044 36.0624C44.1514 36.6094 44.8933 36.9167 45.6668 36.9167V43.3333C45.6668 43.6428 45.5439 43.9395 45.3251 44.1583C45.1063 44.3771 44.8096 44.5 44.5002 44.5H32.8335ZM31.0835 32.25C31.5476 32.25 31.9927 32.0656 32.3209 31.7374C32.6491 31.4092 32.8335 30.9641 32.8335 30.5C32.8335 30.0359 32.6491 29.5908 32.3209 29.2626C31.9927 28.9344 31.5476 28.75 31.0835 28.75C30.6194 28.75 30.1742 28.9344 29.8461 29.2626C29.5179 29.5908 29.3335 30.0359 29.3335 30.5C29.3335 30.9641 29.5179 31.4092 29.8461 31.7374C30.1742 32.0656 30.6194 32.25 31.0835 32.25ZM31.0835 39.25C31.5476 39.25 31.9927 39.0656 32.3209 38.7374C32.6491 38.4092 32.8335 37.9641 32.8335 37.5C32.8335 37.0359 32.6491 36.5908 32.3209 36.2626C31.9927 35.9344 31.5476 35.75 31.0835 35.75C30.6194 35.75 30.1742 35.9344 29.8461 36.2626C29.5179 36.5908 29.3335 37.0359 29.3335 37.5C29.3335 37.9641 29.5179 38.4092 29.8461 38.7374C30.1742 39.0656 30.6194 39.25 31.0835 39.25Z" fill="white"/>
</svg>
