<svg width="199" height="199" viewBox="0 0 199 199" fill="none" xmlns="http://www.w3.org/2000/svg">
<circle cx="99.5" cy="99.5" r="99.5" fill="#FFA6A6" fill-opacity="0.4"/>
<g clip-path="url(#clip0_603_236)">
<path d="M146.764 53.5018C147.003 52.9055 147.061 52.2523 146.932 51.6231C146.803 50.9939 146.492 50.4164 146.038 49.9623C145.584 49.5081 145.006 49.1972 144.377 49.0682C143.748 48.9391 143.095 48.9975 142.498 49.2362L47.0337 87.4234H47.0272L44.0609 88.6046C43.4991 88.8287 43.0102 89.2038 42.6481 89.6883C42.2861 90.1728 42.065 90.748 42.0093 91.3503C41.9536 91.9526 42.0655 92.5586 42.3326 93.1013C42.5997 93.644 43.0116 94.1023 43.5228 94.4256L46.2134 96.1318L46.22 96.1449L78.9997 117.001L89.434 133.394C94.5003 140.875 94.5003 134.312 94.5003 131.031C94.4995 126.861 95.3818 122.739 97.0892 118.934C98.7965 115.13 101.29 111.73 104.406 108.959C107.522 106.188 111.189 104.108 115.167 102.856C119.145 101.605 123.342 101.209 127.483 101.697L146.764 53.5018ZM134.735 65.9049L85.5556 115.084L84.1447 112.866C83.8861 112.459 83.5411 112.114 83.134 111.856L80.9159 110.445L130.095 61.2653L137.826 58.1743L134.742 65.9049H134.735Z" fill="#F24E1E"/>
<path d="M147 131.031C147 137.123 144.58 142.965 140.273 147.273C135.965 151.58 130.123 154 124.031 154C117.94 154 112.097 151.58 107.79 147.273C103.482 142.965 101.062 137.123 101.062 131.031C101.062 124.94 103.482 119.097 107.79 114.79C112.097 110.482 117.94 108.063 124.031 108.062C130.123 108.062 135.965 110.482 140.273 114.79C144.58 119.097 147 124.94 147 131.031V131.031ZM115.146 122.146C114.84 122.45 114.598 122.813 114.432 123.211C114.267 123.61 114.182 124.037 114.182 124.469C114.182 124.9 114.267 125.328 114.432 125.726C114.598 126.125 114.84 126.487 115.146 126.792L119.392 131.031L115.146 135.271C114.529 135.887 114.183 136.722 114.183 137.594C114.183 138.465 114.529 139.301 115.146 139.917C115.762 140.533 116.597 140.879 117.469 140.879C118.34 140.879 119.176 140.533 119.792 139.917L124.031 135.671L128.271 139.917C128.887 140.533 129.722 140.879 130.594 140.879C131.465 140.879 132.301 140.533 132.917 139.917C133.533 139.301 133.879 138.465 133.879 137.594C133.879 136.722 133.533 135.887 132.917 135.271L128.671 131.031L132.917 126.792C133.533 126.176 133.879 125.34 133.879 124.469C133.879 123.597 133.533 122.762 132.917 122.146C132.301 121.529 131.465 121.183 130.594 121.183C129.722 121.183 128.887 121.529 128.271 122.146L124.031 126.392L119.792 122.146C119.487 121.84 119.125 121.598 118.726 121.432C118.328 121.267 117.9 121.182 117.469 121.182C117.037 121.182 116.61 121.267 116.211 121.432C115.813 121.598 115.45 121.84 115.146 122.146Z" fill="#A62600"/>
</g>
<defs>
<clipPath id="clip0_603_236">
<rect width="105" height="105" fill="white" transform="translate(42 49)"/>
</clipPath>
</defs>
</svg>
