<svg width="199" height="199" viewBox="0 0 199 199" fill="none" xmlns="http://www.w3.org/2000/svg">
<circle cx="99.5" cy="99.5" r="99.5" fill="#A6DAFF" fill-opacity="0.4"/>
<path d="M145.5 54H53.5C47.175 54 42.0575 59.175 42.0575 65.5L42 134.5C42 140.825 47.175 146 53.5 146H145.5C151.825 146 157 140.825 157 134.5V65.5C157 59.175 151.825 54 145.5 54ZM143.2 78.4375L102.547 103.853C100.707 105.003 98.2925 105.003 96.4525 103.853L55.8 78.4375C55.2234 78.1138 54.7185 77.6766 54.3159 77.1521C53.9132 76.6277 53.6211 76.027 53.4573 75.3864C53.2935 74.7458 53.2614 74.0786 53.3629 73.4253C53.4644 72.7719 53.6974 72.1459 54.0479 71.5852C54.3983 71.0245 54.8589 70.5408 55.4017 70.1632C55.9445 69.7857 56.5583 69.5222 57.2058 69.3887C57.8534 69.2552 58.5214 69.2546 59.1692 69.3867C59.8171 69.5188 60.4314 69.7811 60.975 70.1575L99.5 94.25L138.025 70.1575C138.569 69.7811 139.183 69.5188 139.831 69.3867C140.479 69.2546 141.147 69.2552 141.794 69.3887C142.442 69.5222 143.056 69.7857 143.598 70.1632C144.141 70.5408 144.602 71.0245 144.952 71.5852C145.303 72.1459 145.536 72.7719 145.637 73.4253C145.739 74.0786 145.706 74.7458 145.543 75.3864C145.379 76.027 145.087 76.6277 144.684 77.1521C144.281 77.6766 143.777 78.1138 143.2 78.4375V78.4375Z" fill="url(#paint0_linear_601_225)"/>
<circle cx="138.5" cy="57.5" r="13.5" fill="#14FF00"/>
<defs>
<linearGradient id="paint0_linear_601_225" x1="46" y1="60.5" x2="240" y2="217" gradientUnits="userSpaceOnUse">
<stop stop-color="#15478A"/>
<stop offset="1" stop-color="#51B5FD"/>
</linearGradient>
</defs>
</svg>
