<svg width="483" height="483" viewBox="0 0 483 483" fill="none" xmlns="http://www.w3.org/2000/svg">
<path d="M60.375 319.837V411.305L237.727 477.83V294.404L187.804 367.608L60.375 319.837Z" fill="url(#paint0_linear_605_218)"/>
<path d="M58.1864 210.709L3.77344 290.555L184.898 358.477L239.274 278.744C46.7906 206.558 58.677 211.312 58.1864 210.709Z" fill="#3089FC"/>
<path d="M423.983 211.312L243.726 278.744L298.102 358.477L479.227 290.555C419.946 203.766 425.342 210.671 423.983 211.312Z" fill="#3089FC"/>
<path d="M276.744 138.448C273.479 140.161 270.652 142.601 268.48 145.579L423.983 203.766C425.342 204.294 420.21 210.86 479.226 124.524L316.554 63.5071C318.196 78.5498 315.278 93.7389 308.179 107.102C301.08 120.466 290.128 131.387 276.744 138.448Z" fill="#3089FC"/>
<path d="M59.0166 203.766L220.671 143.391C222.406 135.888 225.445 128.748 229.651 122.297L200.332 79.2423H169.805C168.804 79.2423 167.844 78.8448 167.136 78.1371C166.429 77.4294 166.031 76.4697 166.031 75.4689C165.924 71.476 166.075 67.4804 166.484 63.5071L3.77344 124.524C63.0541 211.501 57.6581 204.407 59.0166 203.766Z" fill="#3089FC"/>
<path d="M245.273 294.404V477.83L422.625 411.305V319.837L295.196 367.608L245.273 294.404Z" fill="url(#paint1_linear_605_218)"/>
<path d="M265.084 152.522C263.801 156.522 264.141 157.277 264.141 181.125C264.141 182.126 263.743 183.085 263.035 183.793C262.328 184.501 261.368 184.898 260.367 184.898H222.633C221.632 184.898 220.672 184.501 219.965 183.793C219.257 183.085 218.859 182.126 218.859 181.125C218.859 160.182 218.859 156.862 219.199 152.107L71.3557 207.539L241.5 271.348L411.644 207.539L265.084 152.522ZM241.5 241.5C237.022 241.5 232.645 240.172 228.922 237.684C225.198 235.196 222.296 231.661 220.583 227.523C218.869 223.386 218.421 218.834 219.294 214.442C220.168 210.05 222.324 206.016 225.491 202.85C228.657 199.684 232.691 197.527 237.083 196.654C241.475 195.78 246.027 196.228 250.164 197.942C254.301 199.656 257.837 202.558 260.325 206.281C262.813 210.004 264.141 214.381 264.141 218.859C264.141 224.864 261.755 230.623 257.509 234.869C253.263 239.115 247.505 241.5 241.5 241.5Z" fill="url(#paint2_linear_605_218)"/>
<path d="M216.331 43.5832C220.316 40.0341 225.008 37.3705 230.098 35.7681C235.187 34.1658 240.559 33.6611 245.858 34.2875C251.157 34.9139 256.264 36.657 260.839 39.4018C265.415 42.1467 269.357 45.8309 272.405 50.2111C275.452 54.5914 277.536 59.5682 278.518 64.813C279.501 70.0578 279.36 75.4513 278.104 80.6376C276.849 85.8239 274.508 90.685 271.236 94.9001C267.964 99.1151 263.835 102.588 259.122 105.09C249.296 110.192 241.053 117.886 235.286 127.338C229.519 136.789 226.448 147.639 226.406 158.711V177.352H256.594C256.594 158.862 256.141 155.541 257.952 149.881C260.425 142.104 265.842 135.603 273.046 131.768C283.711 126.175 292.698 117.847 299.084 107.637C305.471 97.4266 309.028 85.702 309.391 73.6645C309.754 61.627 306.91 49.7093 301.151 39.1329C295.391 28.5565 286.923 19.7016 276.614 13.4756C266.305 7.24967 254.526 3.87656 242.485 3.70196C230.443 3.52737 218.571 6.55757 208.086 12.482C197.601 18.4065 188.88 27.0122 182.816 37.4172C176.753 47.8222 173.564 59.6523 173.578 71.6953H203.766C203.766 66.3894 204.885 61.1432 207.05 56.2992C209.216 51.4552 212.378 47.1222 216.331 43.5832V43.5832Z" fill="#012C57"/>
<path d="M241.5 233.953C249.836 233.953 256.594 227.195 256.594 218.859C256.594 210.523 249.836 203.766 241.5 203.766C233.164 203.766 226.406 210.523 226.406 218.859C226.406 227.195 233.164 233.953 241.5 233.953Z" fill="#012C57"/>
<defs>
<linearGradient id="paint0_linear_605_218" x1="149.051" y1="294.404" x2="149.051" y2="477.83" gradientUnits="userSpaceOnUse">
<stop stop-color="#0A4EA6"/>
<stop offset="1" stop-color="#3089FC"/>
</linearGradient>
<linearGradient id="paint1_linear_605_218" x1="333.949" y1="294.404" x2="333.949" y2="477.83" gradientUnits="userSpaceOnUse">
<stop stop-color="#0A4EA6"/>
<stop offset="1" stop-color="#2A80EF"/>
</linearGradient>
<linearGradient id="paint2_linear_605_218" x1="241.5" y1="152.107" x2="241.5" y2="271.348" gradientUnits="userSpaceOnUse">
<stop stop-color="#57A1FF"/>
<stop offset="1" stop-color="#053778"/>
</linearGradient>
</defs>
</svg>
