<svg width="50" height="50" viewBox="0 0 50 50" fill="none" xmlns="http://www.w3.org/2000/svg">
<path d="M33.3333 33.3337C37.9357 33.3337 41.6667 29.6027 41.6667 25.0003C41.6667 20.398 37.9357 16.667 33.3333 16.667C28.731 16.667 25 20.398 25 25.0003C25 29.6027 28.731 33.3337 33.3333 33.3337Z" fill="#19BCFE"/>
<path fill-rule="evenodd" clip-rule="evenodd" d="M16.6673 49.9997C18.8775 49.9997 20.9971 49.1217 22.5599 47.5589C24.1227 45.9961 25.0007 43.8765 25.0007 41.6663V33.333H16.6673C14.4572 33.333 12.3376 34.211 10.7748 35.7738C9.21196 37.3366 8.33398 39.4562 8.33398 41.6663C8.33398 43.8765 9.21196 45.9961 10.7748 47.5589C12.3376 49.1217 14.4572 49.9997 16.6673 49.9997V49.9997Z" fill="#09CF83"/>
<path fill-rule="evenodd" clip-rule="evenodd" d="M16.6673 33.3337H25.0007V16.667H16.6673C14.4572 16.667 12.3376 17.545 10.7748 19.1078C9.21196 20.6706 8.33398 22.7902 8.33398 25.0003C8.33398 27.2105 9.21196 29.3301 10.7748 30.8929C12.3376 32.4557 14.4572 33.3337 16.6673 33.3337V33.3337Z" fill="#A259FF"/>
<path fill-rule="evenodd" clip-rule="evenodd" d="M16.6673 16.6667H25.0007V0H16.6673C14.4572 0 12.3376 0.877974 10.7748 2.44078C9.21196 4.00358 8.33398 6.1232 8.33398 8.33333C8.33398 10.5435 9.21196 12.6631 10.7748 14.2259C12.3376 15.7887 14.4572 16.6667 16.6673 16.6667V16.6667Z" fill="#F24E1E"/>
<path fill-rule="evenodd" clip-rule="evenodd" d="M33.3333 16.6667H25V0H33.3333C35.5435 0 37.6631 0.877974 39.2259 2.44078C40.7887 4.00358 41.6667 6.1232 41.6667 8.33333C41.6667 10.5435 40.7887 12.6631 39.2259 14.2259C37.6631 15.7887 35.5435 16.6667 33.3333 16.6667Z" fill="#FF7262"/>
</svg>
