<svg width="557" height="213" viewBox="0 0 557 213" fill="none" xmlns="http://www.w3.org/2000/svg">
<path d="M4.137 155.147L0 148.252L38.614 115.154H137.908V124.807L102.052 163.422L60.679 171.696L4.137 155.147Z" fill="#BAE2FE"/>
<path d="M155 134.577V113H142V119.804L137.908 115.154L104.81 148.252L99.2934 153.768L92.3984 181.35L104.81 211.689H168.247V149.631L155 134.577Z" fill="#1A94EA"/>
<path d="M104.81 148.252H0V211.689H104.81V148.252Z" fill="#36A0EA"/>
<path d="M90.3308 168.249H68.2656V187.556H90.3308V168.249Z" fill="#E2F3FF"/>
<path d="M59.2993 167.56H39.9922V211.69H59.2993V167.56Z" fill="white"/>
<path d="M15.274 174.895V168H7V174.895H14.584H15.274Z" fill="#E2F3FF"/>
<path d="M14.584 180.411H7V187.307H15.274V180.411H14.584Z" fill="#E2F3FF"/>
<path d="M29.0674 168H20.793V174.895H29.0674V168Z" fill="#E2F3FF"/>
<path d="M29.0674 180.411H20.793V187.307H29.0674V180.411Z" fill="#E2F3FF"/>
<path d="M134.459 175.144V168.248H126.184V175.144H133.769H134.459Z" fill="#E2F3FF"/>
<path d="M133.769 180.66H126.184V187.555H134.459V180.66H133.769Z" fill="#E2F3FF"/>
<path d="M148.251 168.249H139.977V175.144H148.251V168.249Z" fill="#E2F3FF"/>
<path d="M148.251 180.66H139.977V187.556H148.251V180.66Z" fill="#E2F3FF"/>
<path d="M194.137 155.147L190 148.252L228.614 115.154H327.908V124.807L292.052 163.422L250.679 171.696L194.137 155.147Z" fill="#BAE2FE"/>
<path d="M345 134.577V113H332V119.804L327.908 115.154L294.81 148.252L289.293 153.768L282.398 181.35L294.81 211.689H358.247V149.631L345 134.577Z" fill="#1A94EA"/>
<path d="M294.81 148.252H190V211.689H294.81V148.252Z" fill="#36A0EA"/>
<path d="M280.331 168.249H258.266V187.556H280.331V168.249Z" fill="#E2F3FF"/>
<path d="M249.299 167.56H229.992V211.69H249.299V167.56Z" fill="white"/>
<path d="M205.274 174.895V168H197V174.895H204.584H205.274Z" fill="#E2F3FF"/>
<path d="M204.584 180.411H197V187.307H205.274V180.411H204.584Z" fill="#E2F3FF"/>
<path d="M219.067 168H210.793V174.895H219.067V168Z" fill="#E2F3FF"/>
<path d="M219.067 180.411H210.793V187.307H219.067V180.411Z" fill="#E2F3FF"/>
<path d="M324.459 175.144V168.248H316.184V175.144H323.769H324.459Z" fill="#E2F3FF"/>
<path d="M323.769 180.66H316.184V187.555H324.459V180.66H323.769Z" fill="#E2F3FF"/>
<path d="M338.251 168.249H329.977V175.144H338.251V168.249Z" fill="#E2F3FF"/>
<path d="M338.251 180.66H329.977V187.556H338.251V180.66Z" fill="#E2F3FF"/>
<path d="M393.895 39.994L387 34.477L425.614 0H523.528V30.34L460.091 73.092L393.895 39.994Z" fill="#BAE2FE"/>
<path d="M541.379 19.34V0.688995H528.379V5.25699L523.527 0L491.808 34.477L479.397 42.752L460.152 183.355L489.175 212.378H556.625V35.856L541.379 19.34Z" fill="#1A94EA"/>
<path d="M491.81 34.4775H387V212.378H491.81V34.4775Z" fill="#36A0EA"/>
<path d="M446.987 168.938H427.68V212.378H446.987V168.938Z" fill="white"/>
<path d="M406.308 181.349C406.688 181.349 406.997 181.041 406.997 180.66V175.454C406.997 174.902 406.549 174.454 405.997 174.454H399.723C399.17 174.454 398.723 174.902 398.723 175.454V180.349C398.723 180.901 399.17 181.349 399.723 181.349H406.308V181.349Z" fill="#E2F3FF"/>
<path d="M406.308 186.865H399.723C399.17 186.865 398.723 187.313 398.723 187.865V192.761C398.723 193.314 399.17 193.761 399.723 193.761H405.997C406.549 193.761 406.997 193.314 406.997 192.761V187.554C406.997 187.174 406.688 186.865 406.308 186.865V186.865Z" fill="#E2F3FF"/>
<path d="M419.786 174.453H413.512C412.959 174.453 412.512 174.901 412.512 175.453V180.349C412.512 180.901 412.959 181.349 413.512 181.349H419.786C420.338 181.349 420.786 180.901 420.786 180.349V175.453C420.786 174.901 420.338 174.453 419.786 174.453Z" fill="#E2F3FF"/>
<path d="M419.786 186.865H413.512C412.959 186.865 412.512 187.313 412.512 187.865V192.761C412.512 193.313 412.959 193.761 413.512 193.761H419.786C420.338 193.761 420.786 193.313 420.786 192.761V187.865C420.786 187.313 420.338 186.865 419.786 186.865Z" fill="#E2F3FF"/>
<path d="M462.847 181.349C463.227 181.349 463.536 181.041 463.536 180.66V175.454C463.536 174.902 463.088 174.454 462.536 174.454H456.262C455.709 174.454 455.262 174.902 455.262 175.454V180.349C455.262 180.901 455.709 181.349 456.262 181.349H462.847V181.349Z" fill="#E2F3FF"/>
<path d="M462.847 186.865H456.262C455.709 186.865 455.262 187.313 455.262 187.865V192.761C455.262 193.314 455.709 193.761 456.262 193.761H462.536C463.088 193.761 463.536 193.314 463.536 192.761V187.554C463.536 187.174 463.227 186.865 462.847 186.865V186.865Z" fill="#E2F3FF"/>
<path d="M476.329 174.453H470.055C469.502 174.453 469.055 174.901 469.055 175.453V180.349C469.055 180.901 469.502 181.349 470.055 181.349H476.329C476.881 181.349 477.329 180.901 477.329 180.349V175.453C477.329 174.901 476.881 174.453 476.329 174.453Z" fill="#E2F3FF"/>
<path d="M476.329 186.865H470.055C469.502 186.865 469.055 187.313 469.055 187.865V192.761C469.055 193.313 469.502 193.761 470.055 193.761H476.329C476.881 193.761 477.329 193.313 477.329 192.761V187.865C477.329 187.313 476.881 186.865 476.329 186.865Z" fill="#E2F3FF"/>
<path d="M476.705 43.4414H400.719C399.614 43.4414 398.719 44.3368 398.719 45.4414V57.9903C398.719 59.0949 399.614 59.9903 400.719 59.9903H476.705C477.81 59.9903 478.705 59.0949 478.705 57.9903V45.4414C478.705 44.3368 477.81 43.4414 476.705 43.4414Z" fill="#E2F3FF"/>
<path d="M476.705 76.5391H400.719C399.614 76.5391 398.719 77.4345 398.719 78.5391V91.088C398.719 92.1925 399.614 93.088 400.719 93.088H476.705C477.81 93.088 478.705 92.1925 478.705 91.088V78.5391C478.705 77.4345 477.81 76.5391 476.705 76.5391Z" fill="#E2F3FF"/>
<path d="M476.705 109.637H400.719C399.614 109.637 398.719 110.532 398.719 111.637V124.186C398.719 125.29 399.614 126.186 400.719 126.186H476.705C477.81 126.186 478.705 125.29 478.705 124.186V111.637C478.705 110.532 477.81 109.637 476.705 109.637Z" fill="#E2F3FF"/>
<path d="M476.705 142.734H400.719C399.614 142.734 398.719 143.63 398.719 144.734V157.283C398.719 158.388 399.614 159.283 400.719 159.283H476.705C477.81 159.283 478.705 158.388 478.705 157.283V144.734C478.705 143.63 477.81 142.734 476.705 142.734Z" fill="#E2F3FF"/>
</svg>
