<svg width="67" height="67" viewBox="0 0 67 67" fill="none" xmlns="http://www.w3.org/2000/svg">
<circle cx="33.5" cy="33.5" r="33.5" fill="#93F8FF" fill-opacity="0.5"/>
<circle cx="33.5" cy="33.5" r="28.8564" fill="#93F8FF"/>
<g clip-path="url(#clip0_372_245)">
<path d="M44 27.1842H37V20L44 27.1842ZM37 28.9803H44V46.0428C44 47.5307 42.8248 48.7368 41.375 48.7368H25.625C24.1752 48.7368 23 47.5301 23 46.0428V22.6941C23 21.2062 24.1752 20 25.625 20H35.25L35.2502 27.1842C35.25 28.1777 36.032 28.9803 37 28.9803ZM26.5 24.9391C26.5 25.185 26.6985 25.3882 26.9375 25.3882H31.3125C31.5531 25.3882 31.75 25.185 31.75 24.9391V24.0411C31.75 23.7958 31.5531 23.5921 31.3125 23.5921H26.9375C26.6985 23.5921 26.5 23.7958 26.5 24.0411V24.9391ZM26.9375 28.9803H31.3125C31.5531 28.9803 31.75 28.7782 31.75 28.5313V27.6332C31.75 27.3863 31.5531 27.1842 31.3125 27.1842H26.9375C26.6985 27.1842 26.5 27.3863 26.5 27.6332V28.5313C26.5 28.7782 26.6985 28.9803 26.9375 28.9803ZM33.8008 37.7809L33.4508 37.6911C32.2039 37.2982 32.2313 37.0681 32.275 36.8661C32.3502 36.4276 33.1823 36.3206 33.9304 36.4381C34.2363 36.4855 34.5719 36.5959 34.8923 36.71C35.4605 36.9117 36.0862 36.6012 36.2841 36.0174C36.4824 35.4314 36.1807 34.7916 35.6098 34.5878C35.2151 34.4484 34.8929 34.3589 34.5948 34.2919V33.9194C34.5948 33.3003 34.1052 32.7969 33.5011 32.7969C32.897 32.7969 32.4073 33.3003 32.4073 33.9194V34.2557C31.1813 34.5256 30.3172 35.3113 30.1203 36.4844C29.7153 38.8889 31.9354 39.5573 32.8831 39.843L33.201 39.9378C34.8022 40.4078 34.776 40.5658 34.7278 40.8515C34.6526 41.29 33.8206 41.3987 33.0703 41.2795C32.6908 41.2216 32.2057 41.0427 31.7764 40.8848L31.532 40.7936C30.9627 40.5919 30.3381 40.8953 30.1363 41.4795C29.9355 42.0638 30.2337 42.7053 30.8035 42.9124L31.0368 42.9966C31.4611 43.1531 31.9326 43.3104 32.4073 43.4182V43.7977C32.4073 44.4168 32.8969 44.9202 33.501 44.9202C34.1052 44.9202 34.5948 44.4168 34.5948 43.7977V43.4467C35.8176 43.1777 36.6844 42.4067 36.8824 41.2336C37.2898 38.8024 35.0203 38.1345 33.8008 37.7809Z" fill="white"/>
</g>
<defs>
<clipPath id="clip0_372_245">
<rect width="21" height="28.7368" fill="white" transform="translate(23 20)"/>
</clipPath>
</defs>
</svg>
