<svg width="67" height="67" viewBox="0 0 67 67" fill="none" xmlns="http://www.w3.org/2000/svg">
<circle cx="33.5" cy="33.5" r="33.5" fill="#93F8FF" fill-opacity="0.5"/>
<circle cx="33.5" cy="33.5" r="28.8564" fill="#93F8FF"/>
<path d="M41.4373 19.8334C41.9489 19.8334 42.4555 19.9341 42.9282 20.1299C43.4009 20.3257 43.8303 20.6127 44.1921 20.9744C44.5539 21.3362 44.8408 21.7657 45.0366 22.2383C45.2324 22.711 45.3332 23.2176 45.3332 23.7292V44.2709C45.3332 44.7825 45.2324 45.2891 45.0366 45.7617C44.8408 46.2344 44.5539 46.6639 44.1921 47.0256C43.8303 47.3874 43.4009 47.6744 42.9282 47.8702C42.4555 48.0659 41.9489 48.1667 41.4373 48.1667H26.5623C26.0506 48.1667 25.5439 48.0659 25.0711 47.87C24.5984 47.6741 24.1688 47.3871 23.8071 47.0251C23.4453 46.6632 23.1584 46.2336 22.9626 45.7608C22.7669 45.2879 22.6663 44.7812 22.6665 44.2695V23.7292C22.6665 22.696 23.077 21.705 23.8076 20.9744C24.5382 20.2438 25.5291 19.8334 26.5623 19.8334H26.9746V31.4033C26.9746 32.463 28.0938 32.8398 28.8432 32.4516L28.9707 32.3737L31.9358 30.678L34.9674 32.4205C35.5993 32.8568 36.7538 32.5621 36.8799 31.5846L36.8913 31.4033V19.8334H41.4388H41.4373ZM34.7663 19.8334V29.8577L32.4698 28.5374C32.2918 28.4595 32.0988 28.4219 31.9046 28.4273C31.7104 28.4327 31.5198 28.4809 31.3464 28.5685L31.1948 28.6578L29.0996 29.8563V19.8334H34.7663Z" fill="white"/>
</svg>
