<svg width="178" height="55" viewBox="0 0 178 55" fill="none" xmlns="http://www.w3.org/2000/svg">
<path d="M81.48 40.3C79.14 40.3 77.16 39.86 75.54 38.98C73.94 38.1 72.72 36.85 71.88 35.23C71.04 33.61 70.62 31.69 70.62 29.47C70.62 27.23 71.05 25.3 71.91 23.68C72.77 22.04 74.01 20.78 75.63 19.9C77.25 19 79.19 18.55 81.45 18.55C82.57 18.55 83.69 18.69 84.81 18.97C85.95 19.23 87.02 19.68 88.02 20.32C88.46 20.58 88.71 20.93 88.77 21.37C88.85 21.79 88.79 22.19 88.59 22.57C88.39 22.95 88.09 23.22 87.69 23.38C87.29 23.52 86.85 23.45 86.37 23.17C85.61 22.73 84.84 22.41 84.06 22.21C83.28 22.01 82.41 21.91 81.45 21.91C79.21 21.91 77.51 22.56 76.35 23.86C75.21 25.16 74.64 27.03 74.64 29.47C74.64 31.93 75.23 33.8 76.41 35.08C77.59 36.36 79.34 37 81.66 37C82.32 37 82.99 36.95 83.67 36.85C84.37 36.73 85.06 36.56 85.74 36.34V31.42H82.44C81.4 31.42 80.88 30.94 80.88 29.98C80.88 29.04 81.4 28.57 82.44 28.57H87.39C88.43 28.57 88.95 29.09 88.95 30.13V37.42C88.95 38.34 88.59 38.93 87.87 39.19C86.99 39.51 85.98 39.78 84.84 40C83.7 40.2 82.58 40.3 81.48 40.3ZM99.7298 40.3C98.2098 40.3 96.8898 39.99 95.7698 39.37C94.6498 38.75 93.7798 37.87 93.1598 36.73C92.5398 35.57 92.2298 34.21 92.2298 32.65C92.2298 31.09 92.5398 29.74 93.1598 28.6C93.7798 27.46 94.6498 26.58 95.7698 25.96C96.8898 25.34 98.2098 25.03 99.7298 25.03C101.25 25.03 102.57 25.34 103.69 25.96C104.81 26.58 105.68 27.46 106.3 28.6C106.92 29.74 107.23 31.09 107.23 32.65C107.23 34.21 106.92 35.57 106.3 36.73C105.68 37.87 104.81 38.75 103.69 39.37C102.57 39.99 101.25 40.3 99.7298 40.3ZM99.7298 37.45C100.85 37.45 101.75 37.05 102.43 36.25C103.11 35.43 103.45 34.23 103.45 32.65C103.45 31.05 103.11 29.86 102.43 29.08C101.75 28.28 100.85 27.88 99.7298 27.88C98.6098 27.88 97.7098 28.28 97.0298 29.08C96.3498 29.86 96.0098 31.05 96.0098 32.65C96.0098 34.23 96.3498 35.43 97.0298 36.25C97.7098 37.05 98.6098 37.45 99.7298 37.45ZM117.705 40.24C116.425 40.24 115.785 39.58 115.785 38.26V22.06H109.935C108.835 22.06 108.285 21.52 108.285 20.44C108.285 19.38 108.835 18.85 109.935 18.85H125.475C126.575 18.85 127.125 19.38 127.125 20.44C127.125 21.52 126.575 22.06 125.475 22.06H119.625V38.26C119.625 39.58 118.985 40.24 117.705 40.24ZM128.534 40.24C127.254 40.24 126.614 39.6 126.614 38.32V26.98C126.614 25.72 127.224 25.09 128.444 25.09C129.664 25.09 130.274 25.72 130.274 26.98V27.91C130.994 26.19 132.534 25.23 134.894 25.03C135.754 24.93 136.234 25.42 136.334 26.5C136.434 27.56 135.914 28.15 134.774 28.27L134.114 28.33C131.654 28.57 130.424 29.83 130.424 32.11V38.32C130.424 39.6 129.794 40.24 128.534 40.24ZM143.046 40.3C141.986 40.3 141.036 40.1 140.196 39.7C139.376 39.28 138.726 38.72 138.246 38.02C137.786 37.32 137.556 36.53 137.556 35.65C137.556 34.57 137.836 33.72 138.396 33.1C138.956 32.46 139.866 32 141.126 31.72C142.386 31.44 144.076 31.3 146.196 31.3H147.246V30.67C147.246 29.67 147.026 28.95 146.586 28.51C146.146 28.07 145.406 27.85 144.366 27.85C143.786 27.85 143.156 27.92 142.476 28.06C141.816 28.2 141.116 28.44 140.376 28.78C139.896 29 139.496 29.03 139.176 28.87C138.856 28.69 138.636 28.42 138.516 28.06C138.416 27.68 138.436 27.3 138.576 26.92C138.736 26.54 139.046 26.26 139.506 26.08C140.426 25.7 141.306 25.43 142.146 25.27C143.006 25.11 143.786 25.03 144.486 25.03C146.626 25.03 148.216 25.53 149.256 26.53C150.296 27.51 150.816 29.04 150.816 31.12V38.32C150.816 39.6 150.236 40.24 149.076 40.24C147.896 40.24 147.306 39.6 147.306 38.32V37.66C146.966 38.48 146.426 39.13 145.686 39.61C144.946 40.07 144.066 40.3 143.046 40.3ZM143.826 37.72C144.806 37.72 145.616 37.38 146.256 36.7C146.916 36.02 147.246 35.16 147.246 34.12V33.46H146.226C144.346 33.46 143.036 33.61 142.296 33.91C141.576 34.19 141.216 34.71 141.216 35.47C141.216 36.13 141.446 36.67 141.906 37.09C142.366 37.51 143.006 37.72 143.826 37.72ZM156.482 22.33C155.782 22.33 155.232 22.16 154.832 21.82C154.452 21.46 154.262 20.97 154.262 20.35C154.262 19.71 154.452 19.22 154.832 18.88C155.232 18.54 155.782 18.37 156.482 18.37C157.962 18.37 158.702 19.03 158.702 20.35C158.702 21.67 157.962 22.33 156.482 22.33ZM156.482 40.21C155.882 40.21 155.422 40.03 155.102 39.67C154.782 39.31 154.622 38.81 154.622 38.17V27.16C154.622 25.8 155.242 25.12 156.482 25.12C157.742 25.12 158.372 25.8 158.372 27.16V38.17C158.372 38.81 158.212 39.31 157.892 39.67C157.572 40.03 157.102 40.21 156.482 40.21ZM164.128 40.24C162.888 40.24 162.268 39.6 162.268 38.32V26.98C162.268 25.72 162.878 25.09 164.098 25.09C165.318 25.09 165.928 25.72 165.928 26.98V27.61C166.428 26.77 167.098 26.13 167.938 25.69C168.798 25.25 169.758 25.03 170.818 25.03C174.278 25.03 176.008 27.04 176.008 31.06V38.32C176.008 39.6 175.388 40.24 174.148 40.24C172.888 40.24 172.258 39.6 172.258 38.32V31.24C172.258 30.1 172.038 29.27 171.598 28.75C171.178 28.23 170.518 27.97 169.618 27.97C168.518 27.97 167.638 28.32 166.978 29.02C166.338 29.7 166.018 30.61 166.018 31.75V38.32C166.018 39.6 165.388 40.24 164.128 40.24Z" fill="white"/>
<path d="M16.9756 32.9327H7.12988C7.12988 37.6855 14.2595 50.9267 28.5188 50.9267C42.778 50.9267 50.134 39.0439 52.6237 31.9142L58.0558 31.9141C59.1216 31.9141 58.7348 29.1981 58.7348 26.1424C48.5496 26.1421 32.5928 26.1408 27.8398 26.1424C26.8212 26.1427 27.5003 27.1609 27.8398 31.9142H42.4385C45.8336 31.9142 38.704 42.7786 29.1978 42.7786C19.3992 42.7786 17.9941 35.9879 16.9756 32.9327Z" fill="white"/>
<path d="M17.3147 25.4629L6.79004 25.4629C8.82708 13.9197 18.3332 8.14804 25.8024 7.12967C36.6666 5.64841 46.5123 11.5429 49.2283 16.6357C43.5699 16.5225 30.9629 16.3641 25.8024 16.6357C18.3332 17.0288 18.6728 22.6337 17.3147 25.4629Z" fill="white"/>
</svg>
