<svg width="169" height="55" viewBox="0 0 169 55" fill="none" xmlns="http://www.w3.org/2000/svg">
<path d="M81.48 40.3C79.14 40.3 77.16 39.86 75.54 38.98C73.94 38.1 72.72 36.85 71.88 35.23C71.04 33.61 70.62 31.69 70.62 29.47C70.62 27.79 70.86 26.28 71.34 24.94C71.84 23.6 72.55 22.46 73.47 21.52C74.41 20.56 75.55 19.83 76.89 19.33C78.23 18.81 79.75 18.55 81.45 18.55C82.57 18.55 83.69 18.69 84.81 18.97C85.95 19.23 87.02 19.68 88.02 20.32C88.36 20.54 88.58 20.81 88.68 21.13C88.8 21.45 88.82 21.78 88.74 22.12C88.66 22.44 88.51 22.72 88.29 22.96C88.07 23.2 87.79 23.35 87.45 23.41C87.13 23.47 86.77 23.39 86.37 23.17C85.61 22.73 84.84 22.41 84.06 22.21C83.28 22.01 82.41 21.91 81.45 21.91C79.97 21.91 78.72 22.21 77.7 22.81C76.68 23.39 75.91 24.24 75.39 25.36C74.89 26.48 74.64 27.85 74.64 29.47C74.64 31.93 75.23 33.8 76.41 35.08C77.59 36.36 79.34 37 81.66 37C82.46 37 83.27 36.92 84.09 36.76C84.91 36.6 85.71 36.38 86.49 36.1L85.74 37.81V31.42H82.44C81.94 31.42 81.55 31.29 81.27 31.03C81.01 30.77 80.88 30.42 80.88 29.98C80.88 29.52 81.01 29.17 81.27 28.93C81.55 28.69 81.94 28.57 82.44 28.57H87.39C87.89 28.57 88.27 28.71 88.53 28.99C88.81 29.25 88.95 29.63 88.95 30.13V37.42C88.95 37.86 88.86 38.23 88.68 38.53C88.52 38.83 88.25 39.05 87.87 39.19C86.99 39.51 85.98 39.78 84.84 40C83.7 40.2 82.58 40.3 81.48 40.3ZM99.7298 40.3C98.2098 40.3 96.8898 39.99 95.7698 39.37C94.6498 38.75 93.7798 37.87 93.1598 36.73C92.5398 35.57 92.2298 34.21 92.2298 32.65C92.2298 31.47 92.3998 30.42 92.7398 29.5C93.0998 28.56 93.6098 27.76 94.2698 27.1C94.9298 26.42 95.7198 25.91 96.6398 25.57C97.5598 25.21 98.5898 25.03 99.7298 25.03C101.25 25.03 102.57 25.34 103.69 25.96C104.81 26.58 105.68 27.46 106.3 28.6C106.92 29.74 107.23 31.09 107.23 32.65C107.23 33.83 107.05 34.89 106.69 35.83C106.35 36.77 105.85 37.58 105.19 38.26C104.53 38.92 103.74 39.43 102.82 39.79C101.9 40.13 100.87 40.3 99.7298 40.3ZM99.7298 37.45C100.47 37.45 101.12 37.27 101.68 36.91C102.24 36.55 102.67 36.02 102.97 35.32C103.29 34.6 103.45 33.71 103.45 32.65C103.45 31.05 103.11 29.86 102.43 29.08C101.75 28.28 100.85 27.88 99.7298 27.88C98.9898 27.88 98.3398 28.06 97.7798 28.42C97.2198 28.76 96.7798 29.29 96.4598 30.01C96.1598 30.71 96.0098 31.59 96.0098 32.65C96.0098 34.23 96.3498 35.43 97.0298 36.25C97.7098 37.05 98.6098 37.45 99.7298 37.45ZM109.755 40.21C109.195 40.23 108.755 40.08 108.435 39.76C108.115 39.44 107.955 39.03 107.955 38.53C107.955 38.15 108.075 37.82 108.315 37.54C108.535 37.24 108.865 37.08 109.305 37.06L110.205 37C111.085 36.94 111.745 36.67 112.185 36.19C112.645 35.69 112.875 34.98 112.875 34.06V20.56C112.875 19.92 113.035 19.44 113.355 19.12C113.695 18.78 114.175 18.61 114.795 18.61C115.415 18.61 115.885 18.78 116.205 19.12C116.545 19.44 116.715 19.92 116.715 20.56V34.03C116.715 35.29 116.485 36.36 116.025 37.24C115.585 38.12 114.925 38.81 114.045 39.31C113.165 39.79 112.075 40.07 110.775 40.15L109.755 40.21ZM127.62 40.3C126.1 40.3 124.78 39.99 123.66 39.37C122.54 38.75 121.67 37.87 121.05 36.73C120.43 35.57 120.12 34.21 120.12 32.65C120.12 31.47 120.29 30.42 120.63 29.5C120.99 28.56 121.5 27.76 122.16 27.1C122.82 26.42 123.61 25.91 124.53 25.57C125.45 25.21 126.48 25.03 127.62 25.03C129.14 25.03 130.46 25.34 131.58 25.96C132.7 26.58 133.57 27.46 134.19 28.6C134.81 29.74 135.12 31.09 135.12 32.65C135.12 33.83 134.94 34.89 134.58 35.83C134.24 36.77 133.74 37.58 133.08 38.26C132.42 38.92 131.63 39.43 130.71 39.79C129.79 40.13 128.76 40.3 127.62 40.3ZM127.62 37.45C128.36 37.45 129.01 37.27 129.57 36.91C130.13 36.55 130.56 36.02 130.86 35.32C131.18 34.6 131.34 33.71 131.34 32.65C131.34 31.05 131 29.86 130.32 29.08C129.64 28.28 128.74 27.88 127.62 27.88C126.88 27.88 126.23 28.06 125.67 28.42C125.11 28.76 124.67 29.29 124.35 30.01C124.05 30.71 123.9 31.59 123.9 32.65C123.9 34.23 124.24 35.43 124.92 36.25C125.6 37.05 126.5 37.45 127.62 37.45ZM146.676 40.3C145.436 40.3 144.346 39.99 143.406 39.37C142.486 38.75 141.876 37.92 141.576 36.88L141.906 36.13V38.32C141.906 38.94 141.746 39.42 141.426 39.76C141.106 40.08 140.656 40.24 140.076 40.24C139.476 40.24 139.016 40.08 138.696 39.76C138.376 39.42 138.216 38.94 138.216 38.32V20.5C138.216 19.88 138.376 19.41 138.696 19.09C139.016 18.77 139.476 18.61 140.076 18.61C140.676 18.61 141.136 18.77 141.456 19.09C141.796 19.41 141.966 19.88 141.966 20.5V28.3H141.606C141.926 27.32 142.546 26.53 143.466 25.93C144.386 25.33 145.456 25.03 146.676 25.03C147.976 25.03 149.106 25.34 150.066 25.96C151.026 26.58 151.776 27.46 152.316 28.6C152.856 29.72 153.126 31.07 153.126 32.65C153.126 34.21 152.856 35.57 152.316 36.73C151.776 37.87 151.016 38.75 150.036 39.37C149.076 39.99 147.956 40.3 146.676 40.3ZM145.626 37.45C146.366 37.45 147.016 37.27 147.576 36.91C148.136 36.55 148.566 36.02 148.866 35.32C149.186 34.6 149.346 33.71 149.346 32.65C149.346 31.05 149.006 29.86 148.326 29.08C147.646 28.28 146.746 27.88 145.626 27.88C144.886 27.88 144.236 28.06 143.676 28.42C143.116 28.76 142.676 29.29 142.356 30.01C142.056 30.71 141.906 31.59 141.906 32.65C141.906 34.23 142.246 35.43 142.926 36.25C143.606 37.05 144.506 37.45 145.626 37.45ZM161.574 40.3C160.714 40.3 159.804 40.21 158.844 40.03C157.884 39.85 157.024 39.54 156.264 39.1C155.944 38.9 155.714 38.67 155.574 38.41C155.454 38.13 155.404 37.86 155.424 37.6C155.464 37.32 155.564 37.08 155.724 36.88C155.904 36.68 156.124 36.55 156.384 36.49C156.664 36.43 156.964 36.48 157.284 36.64C158.084 37.02 158.834 37.29 159.534 37.45C160.234 37.59 160.924 37.66 161.604 37.66C162.564 37.66 163.274 37.5 163.734 37.18C164.214 36.84 164.454 36.4 164.454 35.86C164.454 35.4 164.294 35.05 163.974 34.81C163.674 34.55 163.214 34.36 162.594 34.24L159.594 33.67C158.354 33.43 157.404 32.98 156.744 32.32C156.104 31.64 155.784 30.77 155.784 29.71C155.784 28.75 156.044 27.92 156.564 27.22C157.104 26.52 157.844 25.98 158.784 25.6C159.724 25.22 160.804 25.03 162.024 25.03C162.904 25.03 163.724 25.13 164.484 25.33C165.264 25.51 166.014 25.8 166.734 26.2C167.034 26.36 167.234 26.57 167.334 26.83C167.454 27.09 167.484 27.36 167.424 27.64C167.364 27.9 167.244 28.14 167.064 28.36C166.884 28.56 166.654 28.69 166.374 28.75C166.114 28.79 165.814 28.73 165.474 28.57C164.854 28.25 164.254 28.02 163.674 27.88C163.114 27.74 162.574 27.67 162.054 27.67C161.074 27.67 160.344 27.84 159.864 28.18C159.404 28.52 159.174 28.97 159.174 29.53C159.174 29.95 159.314 30.3 159.594 30.58C159.874 30.86 160.304 31.05 160.884 31.15L163.884 31.72C165.184 31.96 166.164 32.4 166.824 33.04C167.504 33.68 167.844 34.54 167.844 35.62C167.844 37.08 167.274 38.23 166.134 39.07C164.994 39.89 163.474 40.3 161.574 40.3Z" fill="url(#paint0_linear_1230_2760)"/>
<path d="M16.9756 32.9327H7.12988C7.12988 37.6855 14.2595 50.9267 28.5188 50.9267C42.778 50.9267 50.134 39.0439 52.6237 31.9142L58.0558 31.9141C59.1216 31.9141 58.7348 29.1981 58.7348 26.1424C48.5496 26.1421 32.5928 26.1408 27.8398 26.1424C26.8212 26.1427 27.5003 27.1609 27.8398 31.9142H42.4385C45.8336 31.9142 38.704 42.7786 29.1978 42.7786C19.3992 42.7786 17.9941 35.9879 16.9756 32.9327Z" fill="url(#paint1_linear_1230_2760)"/>
<path d="M17.3147 25.4629L6.79004 25.4629C8.82708 13.9197 18.3332 8.14804 25.8024 7.12967C36.6666 5.64841 46.5123 11.5429 49.2283 16.6357C43.5699 16.5225 30.9629 16.3641 25.8024 16.6357C18.3332 17.0288 18.6728 22.6337 17.3147 25.4629Z" fill="url(#paint2_linear_1230_2760)"/>
<defs>
<linearGradient id="paint0_linear_1230_2760" x1="119" y1="10" x2="119" y2="51" gradientUnits="userSpaceOnUse">
<stop stop-color="#1890FF"/>
<stop offset="1" stop-color="#310098"/>
</linearGradient>
<linearGradient id="paint1_linear_1230_2760" x1="39.0435" y1="28.8583" x2="9.16692" y2="46.5126" gradientUnits="userSpaceOnUse">
<stop stop-color="#51B5FD"/>
<stop offset="1" stop-color="#2EA7FF" stop-opacity="0.39"/>
</linearGradient>
<linearGradient id="paint2_linear_1230_2760" x1="36.6666" y1="6.79004" x2="-8.31243e-05" y2="25.8024" gradientUnits="userSpaceOnUse">
<stop stop-color="#0062C1"/>
<stop offset="1" stop-color="#002A53" stop-opacity="0.74"/>
</linearGradient>
</defs>
</svg>
