<svg width="50" height="50" viewBox="0 0 50 50" fill="none" xmlns="http://www.w3.org/2000/svg">
<g clip-path="url(#clip0_984_2787)">
<path d="M36.3281 3.125H13.6719C11.9482 3.125 10.5469 4.52637 10.5469 6.25V43.75C10.5469 45.4736 11.9482 46.875 13.6719 46.875H36.3281C38.0518 46.875 39.4531 45.4736 39.4531 43.75V6.25C39.4531 4.52637 38.0518 3.125 36.3281 3.125ZM35.9375 43.3594H14.0625V6.64062H35.9375V43.3594Z" fill="white"/>
<path d="M14.0625 43.3594H35.9375V6.64062H14.0625V43.3594ZM25 36.4258C26.0791 36.4258 26.9531 37.2998 26.9531 38.3789C26.9531 39.458 26.0791 40.332 25 40.332C23.9209 40.332 23.0469 39.458 23.0469 38.3789C23.0469 37.2998 23.9209 36.4258 25 36.4258Z" fill="#E2F3FF" fill-opacity="0.4"/>
<path d="M23.0469 38.3789C23.0469 38.8969 23.2527 39.3937 23.6189 39.76C23.9852 40.1263 24.482 40.332 25 40.332C25.518 40.332 26.0148 40.1263 26.3811 39.76C26.7474 39.3937 26.9531 38.8969 26.9531 38.3789C26.9531 37.8609 26.7474 37.3641 26.3811 36.9978C26.0148 36.6316 25.518 36.4258 25 36.4258C24.482 36.4258 23.9852 36.6316 23.6189 36.9978C23.2527 37.3641 23.0469 37.8609 23.0469 38.3789V38.3789Z" fill="#103A71"/>
<path d="M32.8165 39.6721L32.267 41.8422L34.5683 41.0969L40.3314 35.2046C39.6659 34.7583 39.1487 34.1879 38.7971 33.5432L32.8165 39.6721ZM44.7283 35.8913C44.0307 36.1206 43.2525 36.1782 42.4726 36.0522L42.6407 44.2927L43.8083 46.4112L44.9038 44.4573L44.7283 35.8913V35.8913ZM46.0347 33.3109C46.5132 32.1022 46.0188 30.7234 44.9315 29.8413L45.7339 27.8143L43.5927 26.9666L42.7902 28.9936C41.3937 28.8924 40.0895 29.5592 39.611 30.7679C38.9999 32.3113 39.9413 34.1252 41.7186 34.8288C43.4958 35.5324 45.4237 34.8544 46.0347 33.3109ZM42.4547 32.9692C41.8659 32.7361 41.5498 32.127 41.7522 31.6156C41.9547 31.1042 42.6021 30.8765 43.1909 31.1096C43.7798 31.3427 44.0959 31.9519 43.8934 32.4633C43.691 32.9746 43.0436 33.2023 42.4547 32.9692Z" fill="white"/>
</g>
<defs>
<clipPath id="clip0_984_2787">
<rect width="50" height="50" fill="white"/>
</clipPath>
</defs>
</svg>
