<svg width="50" height="50" viewBox="0 0 50 50" fill="none" xmlns="http://www.w3.org/2000/svg">
<path d="M34.3743 25.0003C34.3743 23.5837 34.2493 22.2087 34.0827 20.8337H41.1243C41.4577 22.167 41.666 23.5628 41.666 25.0003C41.666 25.7712 41.6035 26.5212 41.4993 27.2503C42.9368 27.4587 44.2702 27.917 45.4993 28.5837C45.7077 27.417 45.8327 26.2295 45.8327 25.0003C45.8327 13.542 36.4577 4.16699 24.9993 4.16699C13.4785 4.16699 4.16602 13.542 4.16602 25.0003C4.16602 36.4587 13.541 45.8337 24.9993 45.8337C26.2285 45.8337 27.416 45.7087 28.5827 45.5003C27.5932 43.6856 27.0773 41.6506 27.0827 39.5837C27.0827 38.9795 27.1452 38.3962 27.2285 37.8128C26.5618 39.1253 25.8327 40.3962 24.9993 41.5837C23.2702 39.0837 21.8743 36.3128 21.0202 33.3337H28.7702C30.0214 31.1594 31.9029 29.4159 34.166 28.3337C34.291 27.2295 34.3743 26.1253 34.3743 25.0003ZM24.9993 8.39616C26.7285 10.8962 28.1243 13.6878 28.9785 16.667H21.0202C21.8743 13.6878 23.2702 10.8962 24.9993 8.39616ZM8.87435 29.167C8.54102 27.8337 8.33268 26.4378 8.33268 25.0003C8.33268 23.5628 8.54102 22.167 8.87435 20.8337H15.916C15.7493 22.2087 15.6243 23.5837 15.6243 25.0003C15.6243 26.417 15.7493 27.792 15.916 29.167H8.87435ZM10.5827 33.3337H16.666C17.3952 35.9378 18.3327 38.4378 19.5827 40.7503C15.7881 39.4413 12.5928 36.8081 10.5827 33.3337ZM16.666 16.667H10.5827C12.5803 13.182 15.7802 10.5451 19.5827 9.25033C18.3327 11.5628 17.3952 14.0628 16.666 16.667ZM29.8743 29.167H20.1243C19.916 27.792 19.791 26.417 19.791 25.0003C19.791 23.5837 19.916 22.1878 20.1243 20.8337H29.8743C30.0618 22.1878 30.2077 23.5837 30.2077 25.0003C30.2077 26.417 30.0618 27.792 29.8743 29.167ZM30.3952 9.25033C34.2285 10.5628 37.416 13.2087 39.416 16.667H33.2702C32.6181 14.0867 31.6526 11.5959 30.3952 9.25033ZM46.8743 35.9378L36.9785 45.8337L31.2493 39.5837L33.666 37.167L36.9785 40.4795L44.4577 33.0003L46.8743 35.9378Z" fill="#42ADFF"/>
</svg>
